<svg width="18" height="18" fill="none" xmlns="http://www.w3.org/2000/svg"><path d="M9 0a9 9 0 00-9 9 9 9 0 009 9 9 9 0 009-9 9 9 0 00-9-9zM2.25 9A6.75 6.75 0 019 2.25c1.48 0 2.848.482 3.959 1.29L3.54 12.96A6.706 6.706 0 012.25 9zM9 15.75a6.706 6.706 0 01-3.959-1.29l9.419-9.42A6.714 6.714 0 0115.75 9 6.75 6.75 0 019 15.75z" fill="url(#paint0_linear_413_3139)"/><defs><linearGradient id="paint0_linear_413_3139" x1="9" y1="0" x2="9" y2="18" gradientUnits="userSpaceOnUse"><stop stop-color="#E93D25"/><stop offset="1" stop-color="#D32525"/></linearGradient></defs></svg>