<svg width="24" height="24" fill="none" xmlns="http://www.w3.org/2000/svg"><g clip-path="url(#clip0_203_528)"><path fill="#fff" d="M0 0h24v24H0z"/><path fill-rule="evenodd" clip-rule="evenodd" d="M100 0H0v15.904c0-3.737 1.016-7.52 3.645-11.385a.07.07 0 01.032-.027c1.53-.691 3.17-1.2 4.885-1.49a.078.078 0 01.079.036c.211.369.453.842.617 1.23a18.57 18.57 0 015.487 0c.164-.38.397-.861.608-1.23A.075.075 0 0115.432 3c1.715.292 3.355.8 4.885 1.491a.06.06 0 01.031.028c2.71 3.923 4.05 8.348 3.549 13.441a.076.076 0 01-.032.055 19.963 19.963 0 01-6.002 2.98.078.078 0 01-.084-.027 15.715 15.715 0 01-1.225-1.962.075.075 0 01.04-.105 12.35 12.35 0 001.874-.877.075.075 0 00.006-.125 9.537 9.537 0 01-.373-.288.074.074 0 00-.078-.01c-3.882 1.765-8.134 1.765-12.061 0a.076.076 0 00-.078.01c-.12.098-.246.195-.372.288a.075.075 0 00.008.125c.598.338 1.22.635 1.872.878a.074.074 0 01.041.104 13.984 13.984 0 01-1.226 1.962.079.079 0 01-.084.028 20.028 20.028 0 01-5.993-2.98.08.08 0 01-.03-.055c-.066-.684-.1-1.37-.1-2.056V100h100V0zM8.02 10.517c1.21 0 2.176 1.078 2.157 2.38 0 1.312-.956 2.38-2.157 2.38-1.182 0-2.157-1.068-2.157-2.38 0-1.311.956-2.38 2.157-2.38zm7.975 0c1.21 0 2.175 1.078 2.156 2.38 0 1.312-.945 2.38-2.156 2.38-1.183 0-2.157-1.068-2.157-2.38 0-1.311.955-2.38 2.157-2.38z" fill="#5865F2"/></g><defs><clipPath id="clip0_203_528"><path fill="#fff" d="M0 0h24v24H0z"/></clipPath></defs></svg>