<svg width="14" height="17" fill="none" xmlns="http://www.w3.org/2000/svg"><path d="M12.444 6.8h.778c.207 0 .404.09.55.249.146.16.228.376.228.601v8.5a.891.891 0 01-.228.601.746.746 0 01-.55.249H.778a.746.746 0 01-.55-.249A.892.892 0 010 16.15v-8.5c0-.225.082-.442.228-.601a.746.746 0 01.55-.249h.778v-.85c0-1.578.573-3.091 1.594-4.207C4.171.627 5.556 0 7 0s2.829.627 3.85 1.743c1.02 1.116 1.594 2.629 1.594 4.207v.85zm-1.555 0v-.85c0-1.127-.41-2.208-1.14-3.005C9.022 2.148 8.032 1.7 7 1.7c-1.031 0-2.02.448-2.75 1.245-.73.797-1.139 1.878-1.139 3.005v.85h7.778zm-4.667 3.4v3.4h1.556v-3.4H6.222z" fill="#fff"/></svg>