<svg width="24" height="24" fill="none" xmlns="http://www.w3.org/2000/svg"><path d="M8.892 21.854a6.25 6.25 0 01-4.42-10.67l7.955-7.955a4.5 4.5 0 016.364 6.364l-6.895 6.894a2.816 2.816 0 01-3.89 0 2.75 2.75 0 01.002-3.888l5.126-5.127a1 1 0 111.414 1.414l-5.126 5.127a.75.75 0 000 1.06.768.768 0 001.06 0l6.895-6.894a2.503 2.503 0 000-3.535 2.56 2.56 0 00-3.536 0L5.886 12.6a4.249 4.249 0 106.01 6.01l6.188-6.187a1 1 0 111.414 1.414l-6.187 6.186a6.205 6.205 0 01-4.42 1.832h.001z" fill="#ACADB1"/></svg>