<svg width="24" height="24" fill="none" xmlns="http://www.w3.org/2000/svg"><g clip-path="url(#clip0_203_533)"><rect width="24" height="24" rx="12" fill="#fff"/><path fill-rule="evenodd" clip-rule="evenodd" d="M100 0H0v11.906l.001-1.025 6.422 2.662c.175-.115.361-.216.56-.297.45-.187.926-.271 1.4-.25l2.924-4.278v-.06c0-2.524 2.036-4.578 4.539-4.578 2.504 0 4.54 2.054 4.54 4.579s-2.036 4.58-4.54 4.58c-.034 0-.069 0-.103-.002L11.56 16.25c.012.465-.073.93-.256 1.375-.702 1.7-2.647 2.508-4.333 1.799a3.329 3.329 0 01-1.958-2.359L0 15.12v-3.051V100h100V0zM10.605 17.328a2.553 2.553 0 01-3.344 1.39 2.55 2.55 0 01-1.317-1.265l1.478.617a1.878 1.878 0 002.462-1.023c.4-.968-.054-2.08-1.014-2.482l-1.528-.637a2.525 2.525 0 011.886.028 2.547 2.547 0 011.38 1.4c.26.636.26 1.338-.004 1.972zm2.216-8.67c0 1.684 1.358 3.053 3.025 3.053 1.668 0 3.025-1.37 3.025-3.052 0-1.681-1.357-3.05-3.025-3.05-1.667 0-3.024 1.369-3.024 3.05zm.759-.004a2.283 2.283 0 012.271-2.292 2.283 2.283 0 012.272 2.292 2.282 2.282 0 01-2.272 2.292 2.282 2.282 0 01-2.271-2.292z" fill="#292E3E"/></g><defs><clipPath id="clip0_203_533"><rect width="24" height="24" rx="12" fill="#fff"/></clipPath></defs></svg>