<svg width="25" height="24" fill="none" xmlns="http://www.w3.org/2000/svg"><g clip-path="url(#clip0_203_546)"><path fill="#fff" d="M.5 0h24v24H.5z"/><path d="M.5 0h100v100H.5V0z" fill="#9146FF"/><path d="M7.513 1.842L6.458 2.91 4.611 14.925l5.541 2.937.792 1.068 5.277-1.87 5.805-4.538.264-4.272-.264-6.141-.791-.267H7.513z" fill="#fff"/><path d="M6.875 1L2.5 5.107v14.786h5.25V24l4.375-4.107h3.5L23.5 12.5V1H6.875zM21.75 11.679l-3.5 3.285h-3.5l-3.063 2.875v-2.875H7.75V2.643h14v9.036z" fill="#000"/><path d="M19.125 5.518h-1.75v4.928h1.75V5.518zm-4.811 0h-1.75v4.928h1.75V5.518z" fill="#000"/></g><defs><clipPath id="clip0_203_546"><path fill="#fff" transform="translate(.5)" d="M0 0h24v24H0z"/></clipPath></defs></svg>