<svg width="15" height="10" viewBox="0 0 15 10" fill="none" xmlns="http://www.w3.org/2000/svg">
<path d="M14.4638 3.54127L12.3052 9.69989C12.2835 9.76197 12.2471 9.8187 12.1986 9.86586C12.1501 9.91302 12.0909 9.94942 12.0253 9.97233C11.9596 9.99525 11.8893 10.0041 11.8195 9.99824C11.7497 9.99238 11.6822 9.97194 11.622 9.93846C11.6086 9.93085 10.1169 9.13039 7.49863 9.13039C4.88036 9.13039 3.38863 9.93085 3.37404 9.939C3.3139 9.97217 3.24653 9.99233 3.1769 9.99799C3.10727 10.0037 3.03716 9.99468 2.97176 9.97173C2.90635 9.94878 2.84731 9.91244 2.799 9.86539C2.75069 9.81834 2.71434 9.76178 2.69264 9.69989L0.535257 3.53964C0.491788 3.41632 0.488439 3.28378 0.525629 3.1587C0.562819 3.03361 0.638889 2.92156 0.744269 2.83664C0.84965 2.75173 0.979635 2.69773 1.11788 2.68145C1.25612 2.66517 1.39644 2.68733 1.52119 2.74515L4.44924 4.10371L6.89482 0.318218C6.95768 0.221122 7.04642 0.140804 7.15241 0.0850503C7.25841 0.0292969 7.37807 0 7.4998 0C7.62152 0 7.74119 0.0292969 7.84718 0.0850503C7.95318 0.140804 8.04191 0.221122 8.10477 0.318218L10.5504 4.10371L13.4796 2.74515C13.6045 2.68725 13.745 2.66512 13.8834 2.68155C14.0218 2.69799 14.1518 2.75225 14.2571 2.83749C14.3624 2.92273 14.4383 3.03513 14.475 3.16048C14.5118 3.28584 14.5079 3.41853 14.4638 3.54181V3.54127Z" fill="#FF9839"/>
</svg>
