<svg width="24" height="24" viewBox="0 0 24 24" fill="none" xmlns="http://www.w3.org/2000/svg">
<g clip-path="url(#clip0_603_1645)">
<path fill-rule="evenodd" clip-rule="evenodd" d="M10.4639 3.28193C10.6429 3.06723 10.8649 2.89243 11.1155 2.7688C11.3662 2.64516 11.64 2.57544 11.9193 2.56414C12.1986 2.55283 12.4771 2.60019 12.737 2.70315C12.9968 2.80612 13.2322 2.9624 13.4279 3.16193L13.5359 3.28193L17.4679 7.99993H20.4529C20.6628 7.99948 20.8704 8.04337 21.0621 8.12872C21.2538 8.21408 21.4253 8.33896 21.5654 8.49521C21.7055 8.65145 21.8111 8.83553 21.8751 9.03538C21.9391 9.23524 21.9602 9.44636 21.9369 9.65493L21.8449 10.4209L21.7449 11.1609L21.6629 11.7149L21.5679 12.3099L21.4599 12.9349L21.3379 13.5829L21.2019 14.2439C21.1299 14.5769 21.0529 14.9109 20.9699 15.2419C20.7486 16.1203 20.4707 16.9834 20.1379 17.8259L19.9169 18.3659L19.7029 18.8539L19.5009 19.2879L19.4069 19.4819L19.1579 19.9719C18.8379 20.5819 18.2339 20.9419 17.5949 20.9939L17.4349 20.9999H6.55493C6.20531 21.0027 5.86152 20.9103 5.56033 20.7328C5.25913 20.5552 5.01185 20.2991 4.84493 19.9919L4.61293 19.5419L4.43293 19.1719C4.40088 19.1038 4.36921 19.0354 4.33793 18.9669L4.13793 18.5179C3.68138 17.4574 3.31085 16.3619 3.02993 15.2419C2.97567 15.0245 2.92367 14.8065 2.87393 14.5879L2.73193 13.9399L2.60493 13.3059L2.49293 12.6929L2.39293 12.1059L2.30593 11.5519L2.23193 11.0389L2.14193 10.3559L2.07593 9.79993C2.07017 9.74894 2.0645 9.69794 2.05893 9.64693C2.03797 9.45042 2.05636 9.2517 2.11304 9.06238C2.16971 8.87306 2.26353 8.69692 2.38902 8.54425C2.5145 8.39158 2.66915 8.26543 2.84392 8.17318C3.01869 8.08092 3.21008 8.02441 3.40693 8.00693L3.54293 7.99993H6.53193L10.4639 3.28193ZM9.96093 12.7219C9.89328 12.486 9.74122 12.2832 9.53371 12.1521C9.32619 12.021 9.07771 11.9708 8.83559 12.0111C8.59346 12.0514 8.37461 12.1793 8.2207 12.3705C8.06678 12.5617 7.98856 12.8028 8.00093 13.0479L8.01393 13.1639L8.51393 16.1639L8.53893 16.2779C8.60658 16.5139 8.75864 16.7167 8.96616 16.8478C9.17367 16.9789 9.42215 17.029 9.66427 16.9888C9.9064 16.9485 10.1253 16.8206 10.2792 16.6294C10.4331 16.4382 10.5113 16.1971 10.4989 15.9519L10.4859 15.8359L9.98593 12.8359L9.96093 12.7219ZM15.1639 12.0139C14.9222 11.9736 14.6742 12.0234 14.4668 12.154C14.2594 12.2845 14.1071 12.4866 14.0389 12.7219L14.0139 12.8359L13.5139 15.8359C13.4722 16.0875 13.5282 16.3456 13.6704 16.5573C13.8126 16.769 14.0304 16.9183 14.2791 16.9748C14.5278 17.0312 14.7887 16.9905 15.0084 16.861C15.228 16.7315 15.3899 16.5229 15.4609 16.2779L15.4859 16.1639L15.9859 13.1639C16.0293 12.9024 15.9671 12.6344 15.813 12.4188C15.6588 12.2032 15.4254 12.0575 15.1639 12.0139ZM11.9999 4.56193L9.13493 7.99993H14.8649L11.9999 4.56193Z" fill="white"/>
</g>
<defs>
<clipPath id="clip0_603_1645">
<rect width="24" height="24" fill="white"/>
</clipPath>
</defs>
</svg>
