<svg width="32" height="32" viewBox="0 0 32 32" fill="none" xmlns="http://www.w3.org/2000/svg">
<g clip-path="url(#clip0_601_1328)">
<path fill-rule="evenodd" clip-rule="evenodd" d="M16 6C10.477 6 6 10.477 6 16C6 21.523 10.477 26 16 26C21.523 26 26 21.523 26 16C26 10.477 21.523 6 16 6ZM16 7C16 9.38695 15.0518 11.6761 13.364 13.364C11.6761 15.0518 9.38695 16 7 16C9.38695 16 11.6761 16.9482 13.364 18.636C15.0518 20.3239 16 22.6131 16 25C16 22.6131 16.9482 20.3239 18.636 18.636C20.3239 16.9482 22.6131 16 25 16C22.6131 16 20.3239 15.0518 18.636 13.364C16.9482 11.6761 16 9.38695 16 7Z" fill=""/>
</g>
<defs>
<clipPath id="clip0_601_1328">
<rect width="32" height="32" fill="white"/>
</clipPath>
</defs>
</svg>
