<svg width="24" height="24" viewBox="0 0 24 24" fill="none" xmlns="http://www.w3.org/2000/svg">
<rect width="24" height="24" rx="12" fill="url(#paint0_linear_511_993)"/>
<path d="M15.2667 10.6801H15.7333C15.8571 10.6801 15.9758 10.7338 16.0633 10.8295C16.1508 10.9251 16.2 11.0548 16.2 11.1901V16.2901C16.2 16.4254 16.1508 16.5551 16.0633 16.6507C15.9758 16.7464 15.8571 16.8001 15.7333 16.8001H8.26665C8.14289 16.8001 8.02419 16.7464 7.93667 16.6507C7.84915 16.5551 7.79999 16.4254 7.79999 16.2901V11.1901C7.79999 11.0548 7.84915 10.9251 7.93667 10.8295C8.02419 10.7338 8.14289 10.6801 8.26665 10.6801H8.73332V10.1701C8.73332 9.22327 9.07749 8.31523 9.69011 7.64573C10.3027 6.97622 11.1336 6.6001 12 6.6001C12.8664 6.6001 13.6973 6.97622 14.3099 7.64573C14.9225 8.31523 15.2667 9.22327 15.2667 10.1701V10.6801ZM14.3333 10.6801V10.1701C14.3333 9.4938 14.0875 8.84519 13.6499 8.36698C13.2123 7.88876 12.6188 7.6201 12 7.6201C11.3811 7.6201 10.7877 7.88876 10.3501 8.36698C9.91249 8.84519 9.66665 9.4938 9.66665 10.1701V10.6801H14.3333ZM11.5333 12.7201V14.7601H12.4667V12.7201H11.5333Z" fill="white"/>
<defs>
<linearGradient id="paint0_linear_511_993" x1="12" y1="0" x2="12" y2="24" gradientUnits="userSpaceOnUse">
<stop stop-color="#E93D25"/>
<stop offset="1" stop-color="#D32525"/>
</linearGradient>
</defs>
</svg>
