<svg width="148" height="30" fill="none" xmlns="http://www.w3.org/2000/svg"><path fill-rule="evenodd" clip-rule="evenodd" d="M7.532 10.592v-8.15c-.323-.21-1.25-.65-2.374-.728-1.405-.098-2.035.485-1.793 1.504.194.815 1.34.954 1.89.921-.194.55-.892 1.602-2.132 1.408C1.573 5.304.943 4.382.894 3.412.846 2.442 1.088.209 3.946.015c2.524-.171 4.52 1.133 5.552 1.808.137.09.257.168.359.23.872.534 2.325.728 2.616 0 .233-.582-.29-.954-.581-1.067h.726c.533 0 1.163.194 1.163 1.067s-.484 1.504-1.453 1.747c-.775.194-1.454.08-1.696 0v7.084c.614.08 2.103.368 3.15.873 1.046.505 2.276 1.44 2.76 1.844.049-2.976.117-9.035 0-9.462-.116-.427-1.146-.792-1.647-.921v-.631c.372.032 1.434.116 2.713.194 1.28.078 2.988-.194 3.682-.34v.777c-.113-.097-.474-.194-1.017.194-.543.388-.614 1.132-.581 1.455v9.558l1.017.825-1.017.97-.146 3.397c-.048 1.132-.087 3.503.146 3.93.232.427 1.098.857 1.501 1.019v.388c-.355 0-1.385-.049-2.664-.242-1.28-.195-2.923.08-3.585.242v-.388c.258-.146.872-.514 1.26-.825.387-.31.387-1.261.339-1.698v-6.599c-.194-.194-.872-.795-2.035-1.65-1.163-.853-3.068-1.39-3.876-1.552l-.194 5.386c.291.34.892 1.31.97 2.474.077 1.165-.614 1.973-.97 2.232-.064.146-.155.63 0 1.407.155.776 1.195 1.682 1.696 2.038-.759.178-2.51.65-3.44 1.116-.93.466-2.745 2.264-3.536 3.105.387-.566 1.26-1.892 1.647-2.669.387-.776.646-2.458.727-3.202-.42.097-1.55.233-2.713 0-1.454-.29-3.004-1.552-3.828-2.523-.823-.97-1.598-3.978-.29-7.18 1.046-2.562 4.99-3.623 6.83-3.834zm-.097 5.434v-3.93c-.662.098-2.17.408-2.907.874-.92.582-2.035 1.552-2.326 4.27-.29 2.717 1.6 4.463 3.489 5.046 1.889.582 3.003-.825 3.052-2.087.048-1.261-.97-2.426-2.326-1.94-1.085.387-.807 1.778-.533 2.425-.113 0-.503-.097-1.162-.485-.824-.485-1.066-1.31-.388-2.668.543-1.087 2.293-1.456 3.1-1.505z" fill="#fff"/><path d="M120.799 10.156c-.271-.35-.113-1.31 0-1.747-1.114.388-2.131 1.359-1.695 2.717.436 1.359 1.937 2.038 3.342 1.892 1.405-.145 2.81-1.358 3.053-3.153.242-1.795-.533-4.027-3.149-4.415-2.617-.389-4.748.242-6.977 2.183-1.783 1.552-2.648 5.078-2.858 6.647l-1.017 1.067 1.017.825c.081.809.378 2.766.92 4.124.679 1.698 2.132 3.105 4.118 4.27 1.987 1.164 4.409.534 6.056-.437 1.647-.97 1.89-3.299.921-4.463-.776-.932-2.164-.906-2.762-.777.178.097.62.456.969 1.116.436.825.145 2.572-.872 3.736-1.017 1.165-3.101 0-4.166-.97-.853-.777-1.421-3.364-1.599-4.561-.081-.485-.194-1.572 0-2.038.194-.466.694-.744.92-.825l-1.017-.97c-.048-.259-.01-1.29.533-3.348.678-2.571 2.374-4.367 3.73-4.706 1.357-.34 2.471.242 3.101 1.164.63.922.63 2.135-.145 2.814-.776.68-2.084.291-2.423-.145z" fill="#fff"/><path fill-rule="evenodd" clip-rule="evenodd" d="M100.597 24.808l.145-.29c-.436-.21-1.279-.787-1.162-1.408.116-.62.823-3.428 1.162-4.755l4.942.098c.468 1.471 1.405 4.512 1.405 4.9 0 .388-1.034.938-1.55 1.164l.145.583c.323-.097 1.26-.292 2.422-.292h3.924v-.29c-.387-.178-1.249-.66-1.598-1.165s-1.05-3.024-1.357-4.221c-.242-.647-.707-2.106-.63-2.766.078-.66.453-.986.63-1.067-.21-.065-.736-.31-1.162-.776-.402-.44-.832-2.093-1.123-3.212a20.592 20.592 0 00-.234-.864l-.1-.312-.002-.007c-.296-.914-.833-2.574-.576-3.174.232-.544 1.001-.841 1.356-.922v-.388c-.694.064-2.403.194-3.682.194s-2.438-.26-2.858-.389v.791a.097.097 0 000 .034V6.24c.016-.089.163-.172.678.034.582.233 1.018.744 1.163.97-.614 2.265-1.889 6.89-2.083 7.279-.194.388-.985.55-1.357.582l.872 1.261c-.516 2.119-1.647 6.53-2.034 7.23-.388.698-1.325.744-1.745.679v.534h4.409zm2.616-14.943l2.132 7.035h-4.118l1.986-7.035zm37.255-7.424v8.152c1.841.21 5.785 1.27 6.831 3.832 1.308 3.203.533 6.21-.29 7.181-.824.97-2.374 2.232-3.828 2.523-1.162.233-2.293.097-2.713 0 .081.744.34 2.426.727 3.202.388.777 1.26 2.103 1.647 2.669-.791-.841-2.606-2.64-3.536-3.105-.93-.466-2.681-.938-3.44-1.116.501-.356 1.541-1.262 1.696-2.038.155-.776.064-1.261 0-1.407-.356-.259-1.047-1.067-.969-2.232.077-1.164.678-2.135.969-2.474l-.194-5.386c-.808.162-2.713.699-3.876 1.553-1.163.854-1.841 1.455-2.035 1.65v6.598c-.048.437-.048 1.388.34 1.698.387.31 1.001.68 1.259.825v.388c-.662-.162-2.306-.437-3.585-.242-1.279.194-2.309.242-2.664.242v-.388c.403-.162 1.269-.592 1.501-1.019.233-.427.194-2.798.146-3.93l-.146-3.396-1.017-.97 1.017-.825V4.867c.033-.323-.038-1.067-.581-1.455-.543-.388-.904-.291-1.017-.194V2.44c.694.146 2.403.418 3.682.34 1.279-.078 2.341-.162 2.713-.194v.63c-.501.13-1.531.495-1.648.922-.116.427-.048 6.486 0 9.462.485-.405 1.715-1.34 2.762-1.844 1.046-.505 2.535-.793 3.149-.873V3.8c-.242.08-.921.194-1.696 0-.969-.243-1.453-.873-1.453-1.747 0-.873.63-1.067 1.163-1.067h.726c-.29.113-.814.485-.581 1.067.291.728 1.744.534 2.616 0 .102-.062.222-.14.359-.23 1.032-.675 3.028-1.979 5.551-1.808 2.859.194 3.101 2.426 3.053 3.397-.049.97-.679 1.892-2.229 2.135-1.24.194-1.938-.858-2.132-1.408.549.033 1.696-.106 1.89-.921.242-1.02-.388-1.602-1.793-1.504-1.124.077-2.051.517-2.374.727zm.097 9.656v3.93c.808.048 2.558.417 3.101 1.504.678 1.358.436 2.183-.388 2.668-.659.388-1.049.485-1.162.485.274-.647.552-2.038-.533-2.426-1.357-.485-2.374.68-2.326 1.941.049 1.262 1.163 2.669 3.052 2.086 1.89-.582 3.779-2.328 3.489-5.046-.291-2.717-1.405-3.687-2.326-4.27-.736-.465-2.245-.775-2.907-.872z" fill="#fff"/><path d="M34.807 11.417c-.194-.825-.552-2.707-.436-3.639.116-.931.21-2.037.242-2.474-.5.13-1.996.398-3.973.437-.466.009-.932.02-1.388.03-1.962.046-3.745.088-4.57-.03a10.824 10.824 0 01-1.841-.437v.63c.355.033 1.143.272 1.453.971.274.617.233 2.761.203 4.36a33.13 33.13 0 00-.01 1.56c.04.892.017 1.406 0 1.552l-.871.922.872 1.019c.032 1.358.106 4.308.145 5.24.049 1.164-.048 2.183-.533 2.474-.387.233-.936.485-1.163.582v.291c1.05-.097 3.518-.29 4.99-.29 1.841 0 5.233.048 6.202.29.775.195 1.13.243 1.21.243h.146c-.29-.663-.92-2.31-1.114-3.59a10.973 10.973 0 010-3.057c.323.113 1.037.194 1.308-.388.339-.728-.242-1.553-1.163-1.553-.92 0-1.405.68-1.453 1.407-.008.12-.016.295-.026.508-.05 1.08-.143 3.137-.507 3.907-.436.922-1.405 1.456-2.374 1.456-.775 0-1.938-.323-2.422-.485v-7.666c.662-.016 2.15-.02 2.81.097.823.146 1.162 1.164 1.21 1.747.04.465.114.679.146.727l.533-.048c-.113-.68-.33-2.261-.29-3.154.038-.892.21-1.86.29-2.232l-.533-.145c.016.469-.174 1.436-1.066 1.552-.891.117-2.438.146-3.1.146V7.39c.258-.226 1.036-.66 2.083-.582 1.308.097 2.568.534 3.246 2.135.542 1.28.775 2.313.823 2.668l.92-.194zm58.668-3.639c-.116.932.243 2.814.437 3.64l-.921.193c-.049-.355-.281-1.387-.824-2.668-.678-1.601-1.938-2.038-3.246-2.135-1.046-.078-1.824.356-2.083.582v6.987c.662 0 2.21-.03 3.1-.146.892-.116 1.083-1.083 1.067-1.552l.533.145c-.081.372-.252 1.34-.291 2.232-.039.893.178 2.475.29 3.154l-.532.048c-.033-.048-.107-.262-.146-.727-.048-.583-.387-1.601-1.21-1.747-.66-.117-2.149-.113-2.81-.097v7.666c.484.162 1.647.485 2.422.485.969 0 1.938-.534 2.374-1.456.364-.77.457-2.827.507-3.907.01-.213.017-.388.025-.508.049-.727.533-1.407 1.454-1.407.92 0 1.502.825 1.163 1.553-.272.582-.986.501-1.309.388a11.03 11.03 0 000 3.057c.194 1.28.824 2.927 1.115 3.59h-.146c-.08 0-.436-.048-1.21-.242-.97-.243-4.361-.292-6.202-.292-1.473 0-3.94.194-4.99.291v-.29c.226-.098.775-.35 1.163-.583.484-.29.581-1.31.533-2.474-.039-.932-.113-3.882-.146-5.24l-.872-1.02.872-.921c.017-.146.04-.66 0-1.553-.014-.327-.003-.896.01-1.56.03-1.598.07-3.742-.203-4.359-.31-.699-1.099-.938-1.454-.97v-.631c.275.097 1.027.32 1.841.437.826.118 2.608.076 4.57.03.457-.01.923-.021 1.39-.03 1.976-.04 3.471-.308 3.972-.437a56.933 56.933 0 01-.243 2.474zM37.18 6.129c.388.113 1.202.485 1.357 1.067.155.582.162 4.9.146 6.987l-1.115 1.116c.275.21.853.66.97.776.116.117.177 1.148.193 1.65v4.803c0 .68-.388 1.359-.824 1.65a5.518 5.518 0 01-.775.436v.389c.953-.13 3.236-.389 4.748-.389.43 0 .849-.005 1.256-.01 1.38-.016 2.634-.031 3.83.156 1.241.194 2.003.372 2.23.437l.29-.194c-.339-.68-1.066-2.417-1.26-3.93-.193-1.514-.21-2.41-.193-2.669.339.194 1.124.456 1.55-.049.533-.63.145-1.552-.872-1.746-1.017-.194-1.55.145-1.744 1.407-.074.48-.105 1.086-.138 1.704-.052 1.006-.106 2.043-.347 2.614-.387.922-1.501 1.795-2.713 1.553-.968-.195-1.792-.566-2.083-.728v-7.084l1.066-.922-1.066-.825.146-6.986c.032-.21.232-.69.775-.922.542-.233.775-.388.823-.437v-.388c-.823.162-2.839.427-4.311.194-1.473-.233-2.003-.226-2.084-.194l.146.534zm15.358 1.067c-.155-.582-.969-.954-1.356-1.067l-.146-.534c.081-.032.61-.039 2.084.194 1.472.233 3.488-.032 4.311-.194v.388c-.048.049-.28.204-.823.437-.543.233-.743.711-.775.922l-.146 6.986 1.066.825-1.066.922v7.084c.291.162 1.115.534 2.084.728 1.21.242 2.325-.631 2.712-1.553.24-.571.295-1.608.347-2.614.033-.618.064-1.224.138-1.704.194-1.262.727-1.601 1.744-1.407 1.017.194 1.405 1.116.872 1.746-.426.505-1.211.243-1.55.049-.016.259 0 1.155.194 2.669.193 1.513.92 3.25 1.26 3.93l-.291.194c-.227-.065-.989-.243-2.23-.437-1.196-.187-2.45-.172-3.83-.156-.407.005-.825.01-1.256.01-1.511 0-3.795.26-4.748.389v-.389c.113-.048.427-.203.775-.436.436-.291.824-.97.824-1.65v-4.803c-.016-.502-.078-1.534-.194-1.65-.116-.116-.694-.566-.969-.776l1.115-1.116c.016-2.086.01-6.405-.146-6.987z" fill="#fff"/><path fill-rule="evenodd" clip-rule="evenodd" d="M73.37 5.352h-8.139c-.113.21-.31.65-.194.728l.05.031c.284.179 1.452.912 1.452 1.813v6.162l-1.114 1.116 1.114 1.067c.113 1.876.272 5.813 0 6.55-.271.738-1.114 1.278-1.502 1.456v.776h6.444v-.534c-.097 0-.417-.087-.92-.436-.63-.437-.679-.922-.679-1.844v-5.968h2.18c1.147 2.297 3.44 6.968 3.44 7.278 0 .31-.872.776-1.308.97v.34h6.637v-.34c-.614-.21-1.996-.892-2.616-1.94-.62-1.048-2.39-4.836-3.198-6.599.727-.259 2.384-1.116 3.198-2.474 1.017-1.699.775-3.93-.485-5.871-1.26-1.941-3.197-2.28-4.36-2.28zm-.242 9.753c-1.046.233-2.73.097-3.44 0V7.827c0-.873.775-1.262 2.471-1.262 1.696 0 3.197.777 3.488 3.736.29 2.96-1.211 4.513-2.52 4.804z" fill="#fff"/></svg>