<svg width="33" height="33" fill="none" xmlns="http://www.w3.org/2000/svg"><path d="M1.416 23.136c-.076-.201.187-.359.334-.199 1.812 1.963 7.57 7.362 15.187 6.176 3.488-.543 6.735-2.218 8.72-5.139 1.069-1.573 1.848-3.358 1.651-5.275a8.83 8.83 0 00-1.066-3.385c-1.056-1.897-2.979-3.604-5.066-4.347 0 0-2.61-.93-3.49.863-.882 1.791.745 2.952 1.388 3.15.54.168 1.795.031 2.465-.936.125-.18.413-.107.43.11.089 1.155-.08 3.366-2.32 4.874-3.15 2.123-5.963.63-6.743.166-2.646-1.576-3.542-5.37-1.532-7.759.073-.086-.018-.21-.124-.17a8.53 8.53 0 00-4.308 3.646c-.11.188-.402.125-.426-.09-.152-1.37-.009-4.645 4.017-7.57 5.246-3.81 12.352-1.1 12.368-1.095.016.005 5.731 1.733 8.54 7.796 2.812 6.07-1.796 12.274-3.863 14.231-2.067 1.957-6.404 5.607-13.486 4.61C7.576 31.88 2.75 26.72 1.416 23.137z" fill="#fff"/><path d="M25.808 17.771c.105-.16.355-.105.38.084.218 1.686.257 6.81-6.706 9.202-6.233 2.14-14.737-.612-17.66-6.651C.996 18.7.602 16.807.572 14.924c-.042-2.903.755-5.405 2.5-7.728C4.894 4.772 7.36 2.867 10.13 1.579 15.252-.803 22.137.234 26.474 3.74c1.85 1.497 3.447 3.522 4.396 5.679.09.206-.173.385-.336.227-1.769-1.714-6.686-5.877-12.713-5.877-7.59 0-11.081 5.506-11.081 5.506S2.606 15.246 8.299 20.19c5.516 4.789 14.402 2.355 17.509-2.418z" fill="#fff"/></svg>